<?xml version="1.0" encoding="UTF-8"?>
<svg width="1024px" height="1024px" viewBox="0 0 1024 1024" version="1.1" xmlns="http://www.w3.org/2000/svg" xmlns:xlink="http://www.w3.org/1999/xlink">
    <!-- Generator: Sketch 44.1 (41455) - http://www.bohemiancoding.com/sketch -->
    <title>Bitmoji App Icon</title>
    <desc>Created with Sketch.</desc>
    <defs>
        <path d="M1.09955728,763.567969 L1.09955728,763.613701 C1.71196893,786.328606 1.90086214,809.174742 5.73241165,831.750462 C9.79262136,855.634517 15.5966136,878.924054 26.669732,900.601041 C41.6400155,929.941126 62.1995495,954.71795 88.1514874,974.957359 C106.784311,989.490206 127.139045,1001.02661 149.671021,1008.30397 C182.526509,1018.90187 216.421903,1022.96407 250.812396,1023.1629 C272.268676,1023.29811 293.711037,1023.83497 315.17527,1023.74549 C471.05193,1023.08934 626.932567,1024.8709 782.813204,1022.78313 C803.498004,1022.50277 823.844784,1019.97956 844.145833,1016.26731 C883.055845,1009.14504 917.44435,992.542322 946.865957,966.29412 C981.155045,935.711317 1004.28949,898.282625 1014.7323,853.109313 C1021.56626,823.582322 1023.27624,793.625849 1023.56853,763.563992 L1023.56853,757.56713 C1023.56853,755.240761 1022.68371,246.776047 1022.60219,240.055425 C1022.37353,221.5936 1021.0135,203.270959 1017.55178,185.105398 C1013.34245,162.969103 1007.39529,141.399487 996.795402,121.372831 C985.602983,100.214804 971.58313,81.1902757 954.242734,64.5656854 C927.680373,39.0949282 897.027977,21.0824699 861.343068,11.554299 C829.111922,2.95071068 796.230586,1.04587184 763.10866,1.07569709 C763.054975,1.06774369 762.929709,0.731712621 762.921755,0.568667961 L261.587262,0.568667961 C261.57732,0.739666019 261.571355,0.910664078 261.559425,1.07569709 C242.761569,1.41968155 223.935876,1.27850874 205.23346,3.59692427 C184.745507,6.144 164.4544,9.97952621 145.062027,17.1415612 C114.517002,28.4393631 87.978501,46.0362563 65.3093282,69.5286058 C39.6258175,96.1446524 21.5218951,126.926291 11.9161786,162.770268 C3.34639223,194.750882 1.48132039,227.367767 1.43558835,260.215301" id="path-1"></path>
    </defs>
    <g id="Page-1" stroke="none" stroke-width="1" fill="none" fill-rule="evenodd">
        <g id="Bitmoji-App-Icon">
            <mask id="mask-2" fill="white">
                <use xlink:href="#path-1"></use>
            </mask>
            <use id="Rounded-Rectangle" fill="#42C990" fill-rule="nonzero" xlink:href="#path-1"></use>
            <polygon id="Red" fill="#E54E42" mask="url(#mask-2)" points="575 855 1087 855 953 1024 575 1024"></polygon>
            <polygon id="Yellow" fill="#FDD02F" mask="url(#mask-2)" points="288 855 800 855 666 1024 288 1024"></polygon>
            <polygon id="Green" fill="#39CA74" mask="url(#mask-2)" points="30 855 542 855 408 1024 30 1024"></polygon>
            <polygon id="Blue" fill="#45A2E0" mask="url(#mask-2)" points="-212 855 300 855 166 1024 -212 1024"></polygon>
            <path d="M687.756204,469.442911 L337.245255,469.442911 C332.274009,469.442911 332.237956,475.450439 332.237956,475.450439 C332.237956,580.514098 407.415545,665.688833 512.50073,665.688833 C617.585915,665.688833 692.763504,580.514098 692.763504,475.450439 C692.763504,475.450439 692.739469,469.442911 687.756204,469.442911 L687.756204,469.442911 Z M612.646715,274.198243 C581.673565,274.198243 556.564964,301.572547 556.564964,340.281054 C556.564964,378.989561 581.673565,406.363864 612.646715,406.363864 C643.619866,406.363864 668.728467,378.989561 668.728467,340.281054 C668.728467,301.572547 643.619866,274.198243 612.646715,274.198243 L612.646715,274.198243 Z M467.435036,372.321205 C467.435036,333.612698 442.326435,302.233375 411.353285,302.233375 C380.380134,302.233375 355.271533,333.612698 355.271533,372.321205 L355.271533,374.323714 C355.271533,374.323714 356.649542,379.418098 359.101115,378.004326 C367.549431,373.138228 388.744327,364.311167 410.167556,364.311167 C432.399965,364.311167 454.884742,373.330469 463.629489,378.136492 C466.065039,379.474168 467.435036,374.323714 467.435036,374.323714 L467.435036,372.321205 Z M809.20925,749.577957 C794.567907,758.59726 777.322768,763.811794 758.859854,763.811794 L629.839778,764.797029 C629.775685,764.797029 637.735288,764.805039 637.671194,764.805039 C605.408164,764.805039 591.355679,773.167518 578.801378,787.149039 L479.452555,914 L479.452555,789.844417 C479.348403,772.799056 467.519159,764.833074 450.538406,764.797029 L264.138686,764.813049 C211.622131,764.813049 169,722.199649 169,669.693852 L169,212.120452 C169,210.394289 169.052076,208.680141 169.140204,206.974003 C171.159147,156.262454 212.908006,116 264.138686,116 L758.859854,116 C811.957255,116 855,159.033927 855,212.120452 L855,669.693852 C855,704.157039 836.661267,733.489797 809.20925,749.577957 L809.20925,749.577957 Z" id="Bitmoji-Icon" fill="#FFFFFF" mask="url(#mask-2)"></path>
        </g>
    </g>
</svg>