<?xml version="1.0" encoding="utf-8"?>
<!-- Generator: Adobe Illustrator 16.0.0, SVG Export Plug-In . SVG Version: 6.00 Build 0)  -->
<!DOCTYPE svg PUBLIC "-//W3C//DTD SVG 1.1//EN" "http://www.w3.org/Graphics/SVG/1.1/DTD/svg11.dtd">
<svg version="1.1" id="Layer_2" xmlns="http://www.w3.org/2000/svg" xmlns:xlink="http://www.w3.org/1999/xlink" x="0px" y="0px"
	 width="332.361px" height="116.332px" viewBox="0 0 332.361 116.332" enable-background="new 0 0 332.361 116.332"
	 xml:space="preserve">
<g>
	<g opacity="0.35">
		<path d="M172.457,42.622c-14,0.246-26.033,12.123-26.881,26.527c-0.847,14.405,10.5,27.281,25.347,28.759
			c14.849,1.477,26.881-10.4,26.881-26.529S186.456,42.376,172.457,42.622z M174.197,84.308c-7.7,0.908-14.253-6.134-13.812-15.096
			c0.438-8.964,4.021-14.567,11.283-14.721c7.259-0.153,11.65,8.183,10.821,17.93C181.855,79.882,177.234,83.949,174.197,84.308z"/>
	</g>
	<g>
		<path fill="#FFFFFF" d="M169.457,39.622c-14,0.246-26.033,12.123-26.881,26.527c-0.847,14.405,10.5,27.281,25.347,28.759
			c14.849,1.477,26.881-10.4,26.881-26.529S183.456,39.376,169.457,39.622z M171.197,81.308c-7.7,0.908-14.253-6.134-13.812-15.096
			c0.438-8.964,4.021-14.567,11.283-14.721c7.259-0.153,11.65,8.183,10.821,17.93C178.855,76.882,174.234,80.949,171.197,81.308z"/>
	</g>
</g>
<g>
	<g opacity="0.35">
		<path d="M200.52,72.852c0,16.129,12.033,28.005,26.882,26.528c14.847-1.478,26.195-14.354,25.348-28.757
			c-0.847-14.405-12.883-26.283-26.881-26.527C211.869,43.848,200.52,56.723,200.52,72.852z M215.836,73.893
			c-0.829-9.747,3.562-18.082,10.821-17.929c7.263,0.152,10.845,5.757,11.283,14.72c0.439,8.964-6.114,16.004-13.813,15.096
			C221.091,85.421,216.47,81.354,215.836,73.893z"/>
	</g>
	<g>
		<path fill="#FFFFFF" d="M197.52,69.852c0,16.129,12.033,28.005,26.882,26.528c14.847-1.478,26.195-14.354,25.348-28.757
			c-0.847-14.405-12.883-26.283-26.881-26.527C208.869,40.848,197.52,53.723,197.52,69.852z M212.836,70.893
			c-0.829-9.747,3.562-18.082,10.821-17.929c7.263,0.152,10.845,5.757,11.283,14.72c0.439,8.964-6.114,16.004-13.813,15.096
			C218.091,82.421,213.47,78.354,212.836,70.893z"/>
	</g>
</g>
<g>
	<g opacity="0.35">
		<polygon points="3,105.05 3,22.245 20.349,17.796 20.307,53.072 49.6,24.818 64.665,30.606 43.374,54.227 57.496,105.67 
			42.176,105.67 30.876,66.258 20.204,76.707 20.349,105.67 		"/>
	</g>
	<g>
		<polygon fill="#FFFFFF" points="0,102.05 0,19.245 17.349,14.796 17.307,50.072 46.6,21.818 61.665,27.606 40.374,51.227 
			54.496,102.67 39.176,102.67 27.876,63.258 17.204,73.707 17.349,102.67 		"/>
	</g>
</g>
<g>
	<g opacity="0.35">
		<path d="M122.461,68.933C122.453,68.788,122.471,69.11,122.461,68.933C122.471,69.104,122.453,68.783,122.461,68.933z"/>
		<path d="M122.461,68.933C122.455,68.815,122.469,69.056,122.461,68.933C122.469,69.054,122.454,68.812,122.461,68.933z"/>
		<path d="M122.461,68.933C122.445,68.623,122.48,69.317,122.461,68.933C122.479,69.287,122.444,68.6,122.461,68.933z"/>
		<path d="M122.461,68.933C122.457,68.878,122.463,68.986,122.461,68.933C122.463,68.988,122.457,68.879,122.461,68.933z"/>
		<path d="M122.461,68.933C122.471,69.105,122.469,69.089,122.461,68.933L122.461,68.933z"/>
		<path d="M122.461,68.933C122.452,68.757,122.475,69.204,122.461,68.933C122.477,69.222,122.452,68.768,122.461,68.933z"/>
		<path d="M122.461,68.933C122.457,68.874,122.467,69.038,122.461,68.933C122.467,69.034,122.457,68.871,122.461,68.933z"/>
		<path d="M122.461,68.933C122.449,68.697,122.475,69.197,122.461,68.933C122.477,69.211,122.45,68.71,122.461,68.933z"/>
		<path d="M122.461,68.933C122.447,68.652,122.475,69.201,122.461,68.933C122.477,69.224,122.447,68.673,122.461,68.933z"/>
		<path d="M122.461,68.933C122.459,68.893,122.461,68.933,122.461,68.933C122.463,68.954,122.459,68.911,122.461,68.933z"/>
		<path d="M122.461,68.933C122.457,68.856,122.463,68.983,122.461,68.933C122.465,68.998,122.457,68.869,122.461,68.933z"/>
		<path d="M122.461,68.933C122.459,68.907,122.463,68.958,122.461,68.933C122.463,68.953,122.459,68.902,122.461,68.933z"/>
		<path d="M122.461,68.933C122.454,68.807,122.469,69.062,122.461,68.933C122.467,69.04,122.453,68.781,122.461,68.933z"/>
		<path d="M122.461,68.933C122.436,68.446,122.49,69.51,122.461,68.933C122.483,69.365,122.431,68.329,122.461,68.933z"/>
		<path d="M122.461,68.933C122.457,68.876,122.463,68.984,122.461,68.933C122.463,68.988,122.457,68.877,122.461,68.933z"/>
		<path d="M129.679,99.267h15.232l-5.73-40.541c-2.167-23.681-10.801-23.736-26.923-18.587L111.922,3L97.098,6.96l2.365,91.804
			l14.558,0.503l-0.844-47.435c3.191-1.411,13.735-4.38,14.089,7.312l1.416,16.676L129.679,99.267z"/>
	</g>
	<g>
		<g>
			<path fill="#FFFFFF" d="M119.461,65.933C119.453,65.788,119.471,66.11,119.461,65.933
				C119.471,66.104,119.453,65.783,119.461,65.933z"/>
			<path fill="#FFFFFF" d="M119.461,65.933C119.455,65.815,119.469,66.056,119.461,65.933
				C119.469,66.054,119.454,65.812,119.461,65.933z"/>
			<path fill="#FFFFFF" d="M119.461,65.933C119.445,65.623,119.48,66.317,119.461,65.933
				C119.479,66.287,119.444,65.6,119.461,65.933z"/>
			<path fill="#FFFFFF" d="M119.461,65.933C119.457,65.878,119.463,65.986,119.461,65.933
				C119.463,65.988,119.457,65.879,119.461,65.933z"/>
			<path fill="#FFFFFF" d="M119.461,65.933C119.471,66.105,119.469,66.089,119.461,65.933L119.461,65.933z"/>
			<path fill="#FFFFFF" d="M119.461,65.933C119.452,65.757,119.475,66.204,119.461,65.933
				C119.477,66.222,119.452,65.768,119.461,65.933z"/>
			<path fill="#FFFFFF" d="M119.461,65.933C119.457,65.874,119.467,66.038,119.461,65.933
				C119.467,66.034,119.457,65.871,119.461,65.933z"/>
			<path fill="#FFFFFF" d="M119.461,65.933C119.449,65.697,119.475,66.197,119.461,65.933
				C119.477,66.211,119.45,65.71,119.461,65.933z"/>
			<path fill="#FFFFFF" d="M119.461,65.933C119.447,65.652,119.475,66.201,119.461,65.933
				C119.477,66.224,119.447,65.673,119.461,65.933z"/>
			<path fill="#FFFFFF" d="M119.461,65.933C119.459,65.893,119.461,65.933,119.461,65.933
				C119.463,65.954,119.459,65.911,119.461,65.933z"/>
			<path fill="#FFFFFF" d="M119.461,65.933C119.457,65.856,119.463,65.983,119.461,65.933
				C119.465,65.998,119.457,65.869,119.461,65.933z"/>
			<path fill="#FFFFFF" d="M119.461,65.933C119.459,65.907,119.463,65.958,119.461,65.933
				C119.463,65.953,119.459,65.902,119.461,65.933z"/>
			<path fill="#FFFFFF" d="M119.461,65.933C119.454,65.807,119.469,66.062,119.461,65.933
				C119.467,66.04,119.453,65.781,119.461,65.933z"/>
			<path fill="#FFFFFF" d="M119.461,65.933C119.436,65.446,119.49,66.51,119.461,65.933
				C119.483,66.365,119.431,65.329,119.461,65.933z"/>
			<path fill="#FFFFFF" d="M119.461,65.933C119.457,65.876,119.463,65.984,119.461,65.933
				C119.463,65.988,119.457,65.877,119.461,65.933z"/>
			<path fill="#FFFFFF" d="M126.679,96.267h15.232l-5.73-40.541c-2.167-23.681-10.801-23.736-26.923-18.587L108.922,0L94.098,3.96
				l2.365,91.804l14.558,0.503l-0.844-47.435c3.191-1.411,13.735-4.38,14.089,7.312l1.416,16.676L126.679,96.267z"/>
		</g>
	</g>
</g>
<g>
	<g opacity="0.35">
		<polygon points="313.317,99.744 309.014,109.873 318.119,116.226 327.093,110.858 323.311,99.744 		"/>
	</g>
	<g>
		<polygon fill="#FFFFFF" points="310.317,96.744 306.014,106.873 315.119,113.226 324.093,107.858 320.311,96.744 		"/>
	</g>
</g>
<g>
	<g opacity="0.35">
		<path d="M250.015,36.706l2.494,17.23h10.429l0.724,40.981c0,0-1.631,14.743,20.589,11.368c0,0,6.95-2.082,6.729-7.002V83.097
			c0,0-4.683,2.798-9.77,2.798c-5.086,0-5.12-2.482-5.12-2.482l-1.362-31.74l16.252-0.908v-10.43l-16.636-1.096l0.203-21.479
			l-11.572-4.797l-0.016,24.195L250.015,36.706z"/>
	</g>
	<g>
		<path fill="#FFFFFF" d="M247.015,33.706l2.494,17.23h10.429l0.724,40.981c0,0-1.631,14.743,20.589,11.368
			c0,0,6.95-2.082,6.729-7.002V80.097c0,0-4.683,2.798-9.77,2.798c-5.086,0-5.12-2.482-5.12-2.482l-1.362-31.74l16.252-0.908v-10.43
			l-16.636-1.096l0.203-21.479l-11.572-4.797l-0.016,24.195L247.015,33.706z"/>
	</g>
</g>
<g>
	<g opacity="0.35">
		<polygon points="301.155,12.058 331.819,17.965 319.983,93.994 		"/>
	</g>
	<g>
		<polygon fill="#FFFFFF" points="298.155,9.058 328.819,14.965 316.983,90.994 		"/>
	</g>
</g>
<g>
	<g opacity="0.35">
		<path d="M60.981,40.688l4.063,10.721c10.075-6.12,15.768,0.023,15.768,0.023l-0.078,6.844
			c-30.025,5.322-22.426,33.408-22.426,33.408c3.038,11.022,12.92,10.642,12.92,10.642l22.511,0.002l0.428-51.108
			C90.638,27.432,60.982,40.688,60.981,40.688z M80.702,92.549c0,0-10.89,2.668-12.089-8.062c0,0,0.229-16.604,12.498-14.821
			L80.702,92.549z"/>
	</g>
	<g>
		<path fill="#FFFFFF" d="M57.981,37.688l4.063,10.721c10.075-6.12,15.768,0.023,15.768,0.023l-0.078,6.844
			c-30.025,5.322-22.426,33.408-22.426,33.408c3.038,11.022,12.92,10.642,12.92,10.642l22.511,0.002l0.428-51.108
			C87.638,24.432,57.982,37.688,57.981,37.688z M77.702,89.549c0,0-10.89,2.668-12.089-8.062c0,0,0.229-16.604,12.498-14.821
			L77.702,89.549z"/>
	</g>
</g>
</svg>
