<svg width="68" height="24" viewBox="0 0 68 24" fill="none" xmlns="http://www.w3.org/2000/svg">
<g clip-path="url(#clip0_1056_41205)">
<path d="M28.1844 30.4779L29.5328 23.9915C29.4734 23.9925 23.4093 22.7071 22.0047 18.2673C21.7207 17.42 21.1153 16.7172 20.318 16.3093C19.5208 15.9015 18.595 15.8211 17.739 16.0852C17.3154 16.2028 16.9198 16.4038 16.5754 16.6763C16.231 16.9488 15.9448 17.2873 15.7337 17.6719C15.5226 18.0564 15.3909 18.4792 15.3463 18.9153C15.3018 19.3513 15.3452 19.7919 15.4742 20.211C18.09 28.4387 27.7705 30.3982 28.1844 30.4779Z" fill="#FFA602"/>
<path d="M25.9846 9.9873C25.1889 9.64751 24.5479 9.02536 24.1859 8.24134C23.8239 7.45732 23.7666 6.56723 24.0251 5.74344C24.2836 4.91965 24.8395 4.22078 25.5852 3.78218C26.3308 3.34358 27.2132 3.19645 28.0613 3.3693C28.5715 2.18551 29.4907 1.39522 31.2956 1.05959C33.1005 0.723958 36.9397 0.564443 38.795 0.510236C40.9824 0.446588 45.2204 0.499505 47.3438 0.768133C48.9275 0.966275 50.5716 1.60949 51.5771 2.89853C52.3012 2.25608 53.2326 1.89427 54.2018 1.87896C55.1899 1.87221 56.1471 2.22242 56.8962 2.86484C57.6454 3.50725 58.1359 4.3984 58.277 5.37353C58.4181 6.34865 58.2004 7.34179 57.664 8.1693C57.1276 8.9968 56.3088 9.60271 55.3591 9.87498C56.7978 12.1218 61.9846 26.8632 59.7468 32.8811C57.392 39.1974 53.3602 43.0411 41.1823 43.3468C22.2289 43.8263 22.3524 33.1757 21.8515 26.8863C21.2109 18.8531 23.8747 12.608 25.9846 9.9873Z" fill="#FFA602"/>
<path d="M40.3056 9.02636C40.3262 9.4465 40.4705 9.85126 40.7206 10.19C40.9706 10.5288 41.3153 10.7866 41.7115 10.9311C42.1077 11.0757 42.5378 11.1006 42.9481 11.0028C43.3585 10.9049 43.7308 10.6887 44.0186 10.3811C44.3064 10.0734 44.4968 9.68808 44.5662 9.27315C44.6355 8.85822 44.5807 8.43213 44.4085 8.04813C44.2363 7.66413 43.9544 7.33927 43.598 7.11414C43.2417 6.88901 42.8267 6.7736 42.4049 6.78233C41.8282 6.80277 41.2832 7.05057 40.8896 7.47132C40.496 7.89208 40.2859 8.45137 40.3056 9.02636Z" fill="white"/>
<path d="M40.5908 9.73578C40.6061 10.056 40.7158 10.3646 40.9062 10.6231C41.0965 10.8815 41.359 11.0782 41.6608 11.1887C41.9627 11.2992 42.2905 11.3185 42.6034 11.2443C42.9162 11.1701 43.2002 11.0055 43.4198 10.7713C43.6394 10.5371 43.7848 10.2435 43.838 9.92728C43.8912 9.61108 43.8498 9.28626 43.7188 8.99344C43.5879 8.70061 43.3733 8.45277 43.1019 8.28088C42.8305 8.10899 42.5142 8.02068 42.1927 8.02699C41.7532 8.04222 41.3376 8.2307 41.0373 8.55107C40.737 8.87143 40.5764 9.29751 40.5908 9.73578Z" fill="#252525"/>
<path d="M27.415 9.39018C27.4356 9.81032 27.5799 10.2151 27.83 10.5539C28.08 10.8926 28.4247 11.1504 28.8209 11.295C29.217 11.4395 29.6472 11.4644 30.0575 11.3666C30.4679 11.2688 30.8402 11.0525 31.128 10.7449C31.4157 10.4373 31.6062 10.0519 31.6756 9.63697C31.7449 9.22204 31.6901 8.79594 31.5179 8.41195C31.3457 8.02795 31.0638 7.70308 30.7074 7.47795C30.3511 7.25282 29.936 7.13741 29.5142 7.14615C28.9376 7.16658 28.3926 7.41439 27.9989 7.83514C27.6053 8.25589 27.3953 8.81518 27.415 9.39018Z" fill="white"/>
<path d="M27.5452 9.99079C27.5396 10.3379 27.6381 10.6787 27.828 10.9696C28.018 11.2604 28.2907 11.4881 28.6113 11.6234C28.9319 11.7587 29.2858 11.7954 29.6275 11.7289C29.9692 11.6623 30.2832 11.4956 30.5292 11.25C30.7752 11.0043 30.9421 10.6911 31.0084 10.3503C31.0747 10.0095 31.0374 9.65678 30.9012 9.3373C30.7651 9.01783 30.5364 8.74617 30.2444 8.55716C29.9525 8.36815 29.6105 8.2704 29.2624 8.27645C28.8071 8.27808 28.3709 8.4593 28.0492 8.78052C27.7274 9.10173 27.5462 9.53684 27.5452 9.99079Z" fill="#252525"/>
<path d="M26.2865 11.5435C26.2865 11.5435 28.9393 8.58548 32.4047 11.5627C32.4047 11.5627 29.7029 13.9326 26.2865 11.5435Z" fill="#FFA602"/>
<path d="M39.1293 11.2922C39.1293 11.2922 41.782 8.33414 45.2475 11.3114C45.2475 11.3114 42.5457 13.6812 39.1293 11.2922Z" fill="#FFA602"/>
<path d="M40.0274 7.61125L46.2384 7.96306L46.2387 6.89241L40.0274 6.11123L40.0274 7.61125Z" fill="#252525"/>
<path d="M31.5 7.5L26.3079 7.85197L26.3079 6.71875L31.5 6L31.5 7.5Z" fill="#252525"/>
<path d="M38.8853 12.9591C38.8853 12.9591 37.9956 9.15838 35.1254 9.35279C32.2552 9.5472 31.6448 12.7405 31.6448 12.7405C31.6448 12.7405 33.4206 16.0443 38.8853 12.9591Z" fill="#333333"/>
<path d="M34.0423 17.532C31.6157 16.9238 31.628 12.7409 31.628 12.7409C33.2969 14.7639 38.8686 12.9595 38.8686 12.9595C38.9226 15.9701 36.6535 17.1262 35.4188 17.4795" fill="#252525"/>
<path d="M32.41 20.6738C32.41 20.6738 32.4634 23.6496 35.3263 23.633C38.1892 23.6165 38.413 20.3082 38.413 20.3082L34.8248 19.4524L32.41 20.6738Z" fill="#333333"/>
<path d="M33.3382 20.1169C33.3382 20.1169 33.7387 21.5876 34.2149 22.0217L36.5564 21.9797C36.5564 21.9797 36.6416 20.6885 37.1438 20.2264C36.2657 19.9439 35.4714 19.4493 34.8316 18.7865C34.8316 18.7865 33.9473 19.9665 33.3382 20.1169Z" fill="white"/>
<path d="M37.4361 22.7167C37.4361 22.7167 36.6528 24.0549 34.4381 23.5232C34.4381 23.5232 35.0287 21.7704 37.4361 22.7167Z" fill="#FF3355"/>
<path d="M34.7996 19.5818C34.9741 19.5787 35.1404 19.5067 35.262 19.3818C35.3835 19.2568 35.4505 19.0889 35.4483 18.9149L35.4152 17.0681C35.4141 16.9816 35.3959 16.8962 35.3617 16.8167C35.3275 16.7372 35.2779 16.6652 35.2158 16.6048C35.1537 16.5445 35.0803 16.4969 34.9997 16.4648C34.9191 16.4327 34.833 16.4168 34.7463 16.4179C34.5717 16.421 34.4055 16.4929 34.2839 16.6179C34.1623 16.7428 34.0953 16.9107 34.0975 17.0848L34.1307 18.9315C34.1313 19.0182 34.1491 19.1038 34.1832 19.1835C34.2172 19.2632 34.2668 19.3354 34.329 19.3958C34.3912 19.4563 34.4648 19.5039 34.5456 19.5358C34.6264 19.5677 34.7127 19.5834 34.7996 19.5818Z" fill="#252525"/>
<path d="M32.5419 20.7551C33.097 20.7614 33.6449 20.629 34.1355 20.3699C34.6261 20.1109 35.0438 19.7335 35.3505 19.2721C35.4092 19.199 35.4516 19.1142 35.4748 19.0234C35.4981 18.9326 35.5016 18.8379 35.4852 18.7456C35.4688 18.6534 35.4328 18.5657 35.3797 18.4884C35.3266 18.4111 35.2575 18.346 35.1771 18.2974C35.0968 18.2488 35.0069 18.2179 34.9136 18.2068C34.8203 18.1956 34.7257 18.2044 34.6361 18.2325C34.5465 18.2607 34.4639 18.3076 34.3939 18.3702C34.3239 18.4327 34.2681 18.5094 34.2302 18.5951C33.6321 19.5539 32.4103 19.4573 32.3612 19.4513C32.1917 19.4426 32.0253 19.4993 31.8966 19.6097C31.7678 19.7201 31.6867 19.8756 31.6699 20.0441C31.6532 20.2125 31.7021 20.3809 31.8065 20.5144C31.911 20.6478 32.0629 20.736 32.2309 20.7607C32.3346 20.7661 32.4385 20.7643 32.5419 20.7551Z" fill="#252525"/>
<path d="M37.801 20.6468C38.1545 20.6435 38.5061 20.595 38.8472 20.5026C38.9371 20.4846 39.0222 20.4481 39.0972 20.3955C39.1722 20.3429 39.2354 20.2753 39.2827 20.1971C39.3301 20.1188 39.3606 20.0316 39.3723 19.9409C39.384 19.8502 39.3767 19.7582 39.3508 19.6705C39.3248 19.5828 39.2809 19.5015 39.2217 19.4317C39.1626 19.3619 39.0895 19.3051 39.0071 19.265C38.9247 19.2249 38.8349 19.2023 38.7433 19.1987C38.6517 19.1951 38.5603 19.2105 38.475 19.244C37.9124 19.3741 37.3257 19.3571 36.7716 19.1949C36.2175 19.0326 35.7147 18.7305 35.3121 18.3178C35.1862 18.2036 35.021 18.1422 34.8509 18.1464C34.6807 18.1506 34.5188 18.2202 34.3988 18.3405C34.2788 18.4609 34.21 18.6227 34.2068 18.7924C34.2035 18.9621 34.2661 19.1264 34.3814 19.2512C34.8259 19.7039 35.3586 20.0612 35.9466 20.3012C36.5347 20.5412 37.1657 20.6588 37.801 20.6468Z" fill="#252525"/>
<path d="M24.252 12.8208C23.6723 13.7777 23.1937 14.7921 22.824 15.8474C22.4441 16.8974 22.1456 17.9748 21.9309 19.0702C21.8149 19.6195 21.7444 20.1715 21.667 20.7271L21.5911 21.5615C21.5936 21.7009 21.5646 21.8373 21.5566 21.9769L21.543 22.3919C21.4896 23.5048 22.0633 30.1484 22.2437 31.2431C22.3462 30.1329 21.9233 23.5179 22.0856 22.431C22.1458 21.8896 22.2375 21.3477 22.3152 20.8061C22.3928 20.2644 22.4916 19.7294 22.6079 19.194C22.8194 18.1236 23.0589 17.0562 23.337 15.9951C23.6152 14.934 23.9215 13.8863 24.252 12.8208Z" fill="#DB8700"/>
<path d="M52.5058 4.62122L54.5674 8.26847C54.5674 8.26847 57.3844 7.2559 56.5346 5.09616C55.6848 2.93642 52.5058 4.62122 52.5058 4.62122Z" fill="#B56B00"/>
<path d="M27.8117 4.66694C27.8117 4.66694 26.2678 6.4932 26.3567 8.52717C26.3567 8.52717 25.1251 7.68834 25.4285 6.28518C25.7319 4.88203 27.1644 4.44154 27.8117 4.66694Z" fill="#DB8700"/>
<path d="M53.6092 17.003C51.7627 16.5796 63.672 17.4777 67.3909 27.561C68.0448 29.3269 66.9329 31.2639 65.1284 31.8156C64.6997 31.9474 64.2491 31.9936 63.8025 31.9515C63.3559 31.9094 62.922 31.78 62.5256 31.5705C62.1293 31.361 61.7783 31.0756 61.4927 30.7307C61.2071 30.3858 60.9926 29.9881 60.8614 29.5603C59.4509 24.9917 53.3791 23.6646 53.323 23.6516L53.6092 17.003Z" fill="#FFA602"/>
<path d="M43.7333 15.0644C40.1008 15.1296 37.1033 12.2465 37.0384 8.62475C36.9734 5.00303 39.8654 2.0142 43.4979 1.94902C47.1305 1.88383 50.1279 4.76698 50.1929 8.38871C50.2579 12.0104 47.3658 14.9993 43.7333 15.0644Z" fill="#CFFFFF" fill-opacity="0.1"/>
<path d="M43.7325 15.2213L43.7884 15.2203C45.5888 15.1811 47.3001 14.4313 48.5467 13.1354C49.7933 11.8396 50.4735 10.1036 50.4378 8.30854C50.4021 6.51343 49.6535 4.80585 48.3564 3.56057C47.0592 2.31528 45.3195 1.63404 43.519 1.66635C41.7185 1.69866 40.0043 2.44188 38.7526 3.7329C37.501 5.02392 36.8142 6.75726 36.8429 8.55249C36.8717 10.3477 37.6136 12.0582 38.9059 13.3084C40.1983 14.5587 41.9354 15.2466 43.736 15.2212L43.7325 15.2213ZM43.4971 2.10587C44.764 2.08386 46.009 2.43623 47.0752 3.11857C48.1414 3.8009 48.9812 4.78267 49.4886 5.94014C49.9961 7.09761 50.1485 8.37898 49.9267 9.62276C49.7049 10.8665 49.1188 12.0171 48.2423 12.9294C47.3657 13.8416 46.238 14.4748 45.0012 14.7491C43.7644 15.0235 42.4738 14.9266 41.2922 14.4708C40.1105 14.0151 39.0907 13.2207 38.3612 12.1879C37.6317 11.1551 37.2252 9.93013 37.1928 8.66728C37.1531 6.97124 37.7891 5.32853 38.9615 4.09889C40.1339 2.86926 41.7473 2.15292 43.4482 2.10675L43.4971 2.10587Z" fill="#333333"/>
<path d="M27.6796 15.0039C24.0471 15.0691 21.0496 12.1859 20.9846 8.56421C20.9197 4.94248 23.8117 1.95365 27.4442 1.88847C31.0767 1.82329 34.0742 4.70643 34.1392 8.32816C34.2041 11.9499 31.3121 14.9387 27.6796 15.0039Z" fill="#CFFFFF" fill-opacity="0.1"/>
<path d="M27.6787 15.1609L27.7311 15.1599C28.6154 15.1377 29.4866 14.942 30.2951 14.584C31.1036 14.226 31.8334 13.7128 32.4429 13.0736C33.0525 12.4345 33.5298 11.6819 33.8477 10.8588C34.1655 10.0357 34.3176 9.1583 34.2953 8.27665C34.2626 6.95008 33.8365 5.66293 33.071 4.57752C32.3055 3.49211 31.2347 2.65704 29.9937 2.17762C28.7528 1.6982 27.3971 1.59589 26.0979 1.8836C24.7986 2.1713 23.6138 2.83614 22.6929 3.79428C21.772 4.75242 21.1562 5.96094 20.9232 7.26745C20.6903 8.57396 20.8505 9.91996 21.3838 11.1357C21.9171 12.3514 22.7995 13.3825 23.9197 14.0988C25.04 14.8152 26.348 15.1847 27.6787 15.1609ZM27.4433 2.04543C28.712 2.022 29.9591 2.37366 31.0275 3.05603C32.0959 3.73841 32.9376 4.72096 33.4466 5.87975C33.9556 7.03855 34.109 8.3217 33.8874 9.56738C33.6659 10.8131 33.0794 11.9655 32.2018 12.8793C31.3243 13.7932 30.195 14.4275 28.9564 14.7023C27.7178 14.9771 26.4254 14.88 25.2421 14.4234C24.0589 13.9668 23.0377 13.1711 22.3075 12.1365C21.5773 11.102 21.1708 9.87501 21.1391 8.61032C21.1175 7.76956 21.2624 6.93279 21.5653 6.14782C21.8682 5.36285 22.3233 4.64507 22.9045 4.03548C23.4858 3.4259 24.1818 2.93647 24.9528 2.59514C25.7237 2.25382 26.5546 2.0673 27.3979 2.04624L27.4433 2.04543Z" fill="#333333"/>
<path d="M34.287 8.05371C34.2963 7.71266 34.4379 7.38849 34.6821 7.14941C34.9262 6.91034 35.2538 6.77502 35.596 6.77193C35.7591 6.76521 35.922 6.79149 36.0746 6.84919C36.2273 6.9069 36.3667 6.99483 36.4844 7.10769C36.602 7.22055 36.6955 7.356 36.7593 7.50587C36.823 7.65575 36.8557 7.81694 36.8552 7.97974L37.1733 7.97403C37.1733 7.97403 37.121 6.42738 35.5903 6.45485C34.0596 6.48232 33.9789 8.02438 33.9791 8.03832L34.287 8.05371Z" fill="#333333"/>
<path d="M49.5653 5.92535L49.6859 5.82559C49.7238 5.79702 53.2662 2.92758 54.3194 2.00592C55.3726 1.08426 55.7127 1.13741 55.773 1.18513C55.9356 1.28678 55.885 1.77915 55.789 2.08063L55.7463 2.23128L56.0485 2.31648L56.0912 2.16583C56.1373 2.00467 56.3497 1.18175 55.9325 0.917365C55.579 0.700632 54.9965 0.969016 54.0809 1.7697C53.0276 2.68787 49.4922 5.5537 49.4578 5.5822L49.3337 5.68203L49.5653 5.92535Z" fill="#333333"/>
<path d="M27.0962 3.23191C27.0962 3.23191 27.5935 2.68938 27.6873 2.75295C27.7594 2.80183 27.8973 2.92225 27.8324 3.23191L27.8322 3.32433L28.07 3.32433L28.1416 3.28603C28.1711 3.12103 28.0204 2.44154 27.6876 2.44149C27.3549 2.44143 27.0957 2.77348 27.0957 2.77348L27.0962 3.23191Z" fill="#333333"/>
<path d="M27.1114 2.76977L27.3311 2.99432L21.0243 9.12588L20.8047 8.90133L27.1114 2.76977Z" fill="#333333"/>
<mask id="mask0_1056_41205" style="mask-type:alpha" maskUnits="userSpaceOnUse" x="-3" y="2" width="31" height="32">
<rect x="4.75293" y="33.2377" width="25.2731" height="23.4154" transform="rotate(-107.865 4.75293 33.2377)" fill="#D9D9D9"/>
</mask>
<g mask="url(#mask0_1056_41205)">
<mask id="mask1_1056_41205" style="mask-type:alpha" maskUnits="userSpaceOnUse" x="0" y="5" width="22" height="18">
<path d="M2.28835 9.83342L2.66479 9.71068C2.75797 9.99222 3.05974 10.146 3.34049 10.0548C3.62097 9.96369 3.77462 9.66133 3.68464 9.37864L4.09292 9.24554C4.1861 9.52708 4.48772 9.68131 4.76847 9.59007C5.04951 9.4987 5.20288 9.19648 5.11278 8.9135L5.52078 8.78053C5.61367 9.0622 5.91598 9.21646 6.19673 9.12522C6.47749 9.03397 6.63101 8.73134 6.54091 8.44836L6.94891 8.31539C7.04193 8.59734 7.34397 8.75173 7.625 8.66036C7.90575 8.56912 8.05955 8.26635 7.96904 7.98323L8.37704 7.85025C8.46979 8.13233 8.77195 8.287 9.05298 8.19563C9.33429 8.10413 9.48796 7.80108 9.39717 7.51809L9.80517 7.38511C9.89805 7.66748 10.2002 7.82214 10.4812 7.73077C10.7626 7.63927 10.9159 7.33636 10.825 7.05308L11.2333 6.91997C11.3256 7.2026 11.6285 7.35729 11.9095 7.26592C12.1905 7.17455 12.3444 6.87109 12.2532 6.58794L12.6614 6.45484C12.7538 6.73746 13.0562 6.89269 13.3378 6.80106C13.6191 6.70956 13.7728 6.40582 13.6814 6.12239L14.055 6.00067C14.1471 6.2837 14.45 6.43908 14.7315 6.34745C15.0131 6.25582 15.1667 5.9518 15.075 5.66822L15.4467 5.54699C15.9231 7.01435 17.4867 7.8151 18.9397 7.34215L21.6532 15.6953C21.1431 15.8614 20.8643 16.4133 21.0311 16.9267L20.7186 17.0286C20.6552 16.8886 20.496 16.8157 20.3478 16.8641C20.1993 16.9127 20.1133 17.065 20.1441 17.2154L19.9089 17.292C19.8454 17.1524 19.6864 17.0794 19.5379 17.1279C19.3893 17.1762 19.3034 17.3288 19.3343 17.4792L19.099 17.5557C19.0353 17.4159 18.8764 17.3429 18.7279 17.3914C18.5794 17.44 18.4934 17.5923 18.5244 17.7429L18.2891 17.8195C18.2255 17.6797 18.0665 17.6067 17.9179 17.655C17.7697 17.7034 17.6838 17.856 17.7145 18.0067L17.4795 18.0832C17.4161 17.9432 17.2565 17.8702 17.1083 17.9186C16.9594 17.967 16.8737 18.1199 16.9049 18.2704L16.6696 18.347C16.6063 18.207 16.4472 18.1337 16.2983 18.1821C16.1494 18.2305 16.0637 18.3834 16.0946 18.534L15.8596 18.6105C15.7963 18.4705 15.6369 18.3974 15.4884 18.4459C15.3395 18.4943 15.2538 18.6472 15.2847 18.7978L15.0497 18.8743C14.9865 18.7339 14.8273 18.661 14.6784 18.7094C14.5298 18.7577 14.4441 18.9106 14.4751 19.0615L14.2401 19.138C14.1767 18.9977 14.0177 18.9247 13.8688 18.9731C13.7197 19.0212 13.6339 19.1745 13.6653 19.3253L13.4303 19.4017C13.3671 19.2613 13.2077 19.1882 13.0588 19.2366C12.9099 19.285 12.8242 19.4379 12.8553 19.5888L12.6397 19.6589C12.5766 19.5188 12.4172 19.4454 12.2685 19.4937C12.1196 19.5421 12.0338 19.6954 12.0651 19.8461L11.8301 19.9226C11.7669 19.7822 11.6076 19.709 11.4587 19.7574C11.3097 19.8058 11.2239 19.9592 11.2552 20.1099L11.0202 20.1864C10.9569 20.0457 10.7976 19.9726 10.6487 20.021C10.4994 20.0695 10.4136 20.2228 10.4454 20.3737L10.2104 20.4502C10.147 20.3095 9.9877 20.2363 9.83877 20.2847C9.68971 20.3329 9.604 20.4865 9.63577 20.6374L9.40076 20.7138C9.33771 20.573 9.17797 20.4997 9.02905 20.5481C8.87984 20.5967 8.79399 20.75 8.82576 20.9009L8.59089 20.9776C8.52783 20.8368 8.36838 20.7634 8.21904 20.8116C8.06983 20.8602 7.98412 21.0138 8.01561 21.1648L7.78088 21.2411C7.71782 21.1003 7.55837 21.0269 7.40916 21.0754C7.25995 21.124 7.17424 21.2776 7.20573 21.4286L6.971 21.5049C6.90823 21.364 6.74849 21.2907 6.59943 21.3388C6.45022 21.3873 6.36423 21.5411 6.39613 21.6923L6.1614 21.7686C6.09835 21.6278 5.93876 21.5541 5.78955 21.6026C5.64035 21.6511 5.55435 21.8049 5.58625 21.956L5.35152 22.0324C5.28862 21.8912 5.12875 21.8176 4.97954 21.8661C4.83034 21.9146 4.74434 22.0684 4.77624 22.2196L4.45933 22.3228C4.2917 21.8098 3.74254 21.5288 3.23383 21.6956L3.23271 21.6961L0.518818 13.3428C0.862572 13.2308 1.16833 13.0579 1.42904 12.8404C2.27699 12.1343 2.65226 10.9538 2.28835 9.83342Z" fill="#6D2EE5"/>
</mask>
<g mask="url(#mask1_1056_41205)">
<path d="M2.28835 9.83342L2.66479 9.71068C2.75797 9.99222 3.05974 10.146 3.34049 10.0548C3.62097 9.96369 3.77462 9.66133 3.68464 9.37864L4.09292 9.24554C4.1861 9.52708 4.48772 9.68131 4.76847 9.59007C5.04951 9.4987 5.20288 9.19648 5.11278 8.9135L5.52078 8.78053C5.61367 9.0622 5.91598 9.21646 6.19673 9.12522C6.47749 9.03397 6.63101 8.73134 6.54091 8.44836L6.94891 8.31539C7.04193 8.59734 7.34397 8.75173 7.625 8.66036C7.90575 8.56912 8.05955 8.26635 7.96904 7.98323L8.37704 7.85025C8.46979 8.13233 8.77195 8.287 9.05298 8.19563C9.33429 8.10413 9.48796 7.80108 9.39717 7.51809L9.80517 7.38511C9.89805 7.66748 10.2002 7.82214 10.4812 7.73077C10.7626 7.63927 10.9159 7.33636 10.825 7.05308L11.2333 6.91997C11.3256 7.2026 11.6285 7.35729 11.9095 7.26592C12.1905 7.17455 12.3444 6.87109 12.2532 6.58794L12.6614 6.45484C12.7538 6.73746 13.0562 6.89269 13.3378 6.80106C13.6191 6.70956 13.7728 6.40582 13.6814 6.12239L14.055 6.00067C14.1471 6.2837 14.45 6.43908 14.7315 6.34745C15.0131 6.25582 15.1667 5.9518 15.075 5.66822L15.4467 5.54699C15.9231 7.01435 17.4867 7.8151 18.9397 7.34215L21.6532 15.6953C21.1431 15.8614 20.8643 16.4133 21.0311 16.9267L20.7186 17.0286C20.6552 16.8886 20.496 16.8157 20.3478 16.8641C20.1993 16.9127 20.1133 17.065 20.1441 17.2154L19.9089 17.292C19.8454 17.1524 19.6864 17.0794 19.5379 17.1279C19.3893 17.1762 19.3034 17.3288 19.3343 17.4792L19.099 17.5557C19.0353 17.4159 18.8764 17.3429 18.7279 17.3914C18.5794 17.44 18.4934 17.5923 18.5244 17.7429L18.2891 17.8195C18.2255 17.6797 18.0665 17.6067 17.9179 17.655C17.7697 17.7034 17.6838 17.856 17.7145 18.0067L17.4795 18.0832C17.4161 17.9432 17.2565 17.8702 17.1083 17.9186C16.9594 17.967 16.8737 18.1199 16.9049 18.2704L16.6696 18.347C16.6063 18.207 16.4472 18.1337 16.2983 18.1821C16.1494 18.2305 16.0637 18.3834 16.0946 18.534L15.8596 18.6105C15.7963 18.4705 15.6369 18.3974 15.4884 18.4459C15.3395 18.4943 15.2538 18.6472 15.2847 18.7978L15.0497 18.8743C14.9865 18.7339 14.8273 18.661 14.6784 18.7094C14.5298 18.7577 14.4441 18.9106 14.4751 19.0615L14.2401 19.138C14.1767 18.9977 14.0177 18.9247 13.8688 18.9731C13.7197 19.0212 13.6339 19.1745 13.6653 19.3253L13.4303 19.4017C13.3671 19.2613 13.2077 19.1882 13.0588 19.2366C12.9099 19.285 12.8242 19.4379 12.8553 19.5888L12.6397 19.6589C12.5766 19.5188 12.4172 19.4454 12.2685 19.4937C12.1196 19.5421 12.0338 19.6954 12.0651 19.8461L11.8301 19.9226C11.7669 19.7822 11.6076 19.709 11.4587 19.7574C11.3097 19.8058 11.2239 19.9592 11.2552 20.1099L11.0202 20.1864C10.9569 20.0457 10.7976 19.9726 10.6487 20.021C10.4994 20.0695 10.4136 20.2228 10.4454 20.3737L10.2104 20.4502C10.147 20.3095 9.9877 20.2363 9.83877 20.2847C9.68971 20.3329 9.604 20.4865 9.63577 20.6374L9.40076 20.7138C9.33771 20.573 9.17797 20.4997 9.02905 20.5481C8.87984 20.5967 8.79399 20.75 8.82576 20.9009L8.59089 20.9776C8.52783 20.8368 8.36838 20.7634 8.21904 20.8116C8.06983 20.8602 7.98412 21.0138 8.01561 21.1648L7.78088 21.2411C7.71782 21.1003 7.55837 21.0269 7.40916 21.0754C7.25995 21.124 7.17424 21.2776 7.20573 21.4286L6.971 21.5049C6.90823 21.364 6.74849 21.2907 6.59943 21.3388C6.45022 21.3873 6.36423 21.5411 6.39613 21.6923L6.1614 21.7686C6.09835 21.6278 5.93876 21.5541 5.78955 21.6026C5.64035 21.6511 5.55435 21.8049 5.58625 21.956L5.35152 22.0324C5.28862 21.8912 5.12875 21.8176 4.97954 21.8661C4.83034 21.9146 4.74434 22.0684 4.77624 22.2196L4.45933 22.3228C4.2917 21.8098 3.74254 21.5288 3.23383 21.6956L3.23271 21.6961L0.518818 13.3428C0.862572 13.2308 1.16833 13.0579 1.42904 12.8404C2.27699 12.1343 2.65226 10.9538 2.28835 9.83342Z" fill="url(#paint0_linear_1056_41205)"/>
<g style="mix-blend-mode:multiply" opacity="0.33">
<g style="mix-blend-mode:multiply">
<g style="mix-blend-mode:multiply">
<g style="mix-blend-mode:multiply">
<path d="M2.54719 12.0825C2.55292 13.214 2.76043 14.3343 3.10809 15.4092C3.78552 17.5043 4.91869 19.3796 5.98869 21.287C5.73708 21.3511 5.45957 21.4347 5.15021 21.5337C3.14318 22.1775 5.4205 24.5084 5.88665 26.4561C6.35279 28.4038 8.54048 27.6856 10.2953 28.159C12.0501 28.6324 11.7722 33.3933 12.2711 34.5172C12.7699 35.6411 13.2824 35.9791 15.3224 36.0166C17.3624 36.054 16.8701 38.3014 17.3693 39.3336C17.8682 40.3659 19.6792 40.2806 19.6792 40.2806C21.2939 39.5651 19.5138 36.1729 18.1097 35.5741C16.7057 34.9752 15.4263 32.0696 15.2562 29.0063C15.086 25.943 13.3197 24.0901 12.6235 23.9936C12.0763 23.918 10.3608 24.3528 9.28834 23.6377C9.04555 23.3451 8.86737 22.9838 8.77857 22.6391C8.5012 21.5636 8.73177 20.4377 8.82351 19.3542C9.00943 17.1639 8.64784 14.7864 6.90565 13.2755C6.17368 12.6409 5.17809 12.18 4.74545 11.2669C4.46261 10.6704 4.45456 9.112 3.41337 9.33917C2.48961 9.54079 2.54385 11.3752 2.54747 12.0824L2.54719 12.0825Z" fill="#36009E"/>
</g>
<g style="mix-blend-mode:multiply">
<path d="M19.6776 40.281C19.6776 40.281 18.3334 38.388 19.1733 35.4933C20.0133 32.5985 19.5371 30.07 19.1121 29.1505C18.687 28.2311 16.3509 24.0169 16.7138 21.662C17.0767 19.307 14.6769 18.1619 13.5431 17.7463C12.4093 17.3306 9.92479 14.1941 10.2967 11.9224C10.6685 9.65072 10.8057 7.13767 11.9633 5.53986C13.1209 3.94204 15.934 2.27927 16.5707 3.34112C17.2077 4.40284 17.0018 8.22374 16.2423 9.70614C15.4833 11.1887 16.5159 14.1526 18.1223 16.0977C19.7284 18.0428 21.9597 19.1964 21.0276 22.2461C20.0951 25.2959 22.0276 30.6556 22.8462 32.2929C23.6649 33.9305 23.0529 36.6424 22.013 37.9099C20.973 39.1773 19.7047 39.8459 19.6776 40.2804L19.6776 40.281Z" fill="#36009E"/>
</g>
</g>
</g>
</g>
<g style="mix-blend-mode:screen" opacity="0.4">
<g style="mix-blend-mode:screen">
<g style="mix-blend-mode:screen">
<g style="mix-blend-mode:screen">
<path d="M-0.524376 14.1922C-0.391803 15.3163 -0.0605428 16.4064 0.405386 17.4356C1.31294 19.4415 2.64856 21.1772 3.92523 22.952C3.68248 23.044 3.41596 23.1587 3.12011 23.2921C1.19865 24.1591 3.72191 26.2186 4.40303 28.1015C5.08429 29.9847 7.17665 29.0229 8.97259 29.2948C10.7685 29.5666 11.0259 34.3301 11.6472 35.391C12.2685 36.4518 12.8155 36.7297 14.846 36.5358C16.8765 36.342 16.6395 38.6316 17.2505 39.6012C17.8618 40.5707 19.6509 40.281 19.6509 40.281C21.1745 39.3869 19.0265 36.2166 17.565 35.7804C16.1031 35.344 14.5071 32.601 13.9951 29.5754C13.4832 26.5497 11.5211 24.9081 10.8185 24.8911C10.2666 24.8778 8.61131 25.5046 7.46565 24.915C7.19187 24.6515 6.9742 24.3128 6.84731 23.9803C6.45147 22.9427 6.5543 21.7974 6.5242 20.71C6.46326 18.5118 5.83818 16.1895 3.93826 14.8848C3.14021 14.337 2.09953 13.9914 1.56767 13.1329C1.21989 12.5721 1.03739 11.0237 0.028652 11.3673C-0.866294 11.6724 -0.606941 13.4897 -0.524097 14.1921L-0.524376 14.1922Z" fill="#36009E"/>
</g>
<g style="mix-blend-mode:screen">
<path d="M19.6517 40.282C19.6517 40.282 18.1044 38.5528 18.6147 35.5804C19.125 32.6079 18.3686 30.1485 17.8433 29.2829C17.318 28.4172 14.5258 24.4926 14.6223 22.1109C14.719 19.729 12.2072 18.8625 11.0342 18.5778C9.86142 18.2929 7.04227 15.4569 7.15739 13.1566C7.2725 10.8564 7.1269 8.34296 8.09771 6.6236C9.06851 4.90425 11.6766 2.93302 12.428 3.9163C13.1793 4.89958 13.403 8.7209 12.8149 10.2804C12.2268 11.84 13.585 14.6693 15.3983 16.4208C17.2117 18.1722 19.5572 19.0664 18.9727 22.2035C18.3883 25.3406 20.9079 30.4492 21.9048 31.9841C22.9016 33.519 22.5973 36.284 21.706 37.6617C20.815 39.0392 19.6303 39.8475 19.6519 40.2823L19.6517 40.282Z" fill="#36009E"/>
</g>
</g>
</g>
</g>
<mask id="mask2_1056_41205" style="mask-type:alpha" maskUnits="userSpaceOnUse" x="2" y="7" width="19" height="14">
<path d="M4.91572 20.4566L5.27628 20.8697L19.5289 16.2589L19.6319 15.5278L20.0435 15.0974L18.0529 8.88335L16.8957 8.87481L16.1461 8.57423L15.3355 7.99463L14.9066 7.06676L3.53121 10.7839L3.73918 11.2338L3.62076 12.5186L3.05801 13.4292L2.15684 14.1215L4.17726 20.2533L4.91572 20.4566Z" fill="#D9D9D9"/>
</mask>
<g mask="url(#mask2_1056_41205)">
<path d="M3.74065 14.5152L8.06323 19.1588C8.18472 19.2893 8.38811 19.2964 8.51752 19.1746L16.5177 11.6477C16.6471 11.5259 16.6536 11.3214 16.5321 11.1909L12.2095 6.54731C12.088 6.4168 11.8846 6.40969 11.7552 6.53144L3.75498 14.0584C3.62558 14.1802 3.61916 14.3847 3.74065 14.5152Z" fill="#333333"/>
<path d="M4.45931 14.3824L8.28516 18.4924L15.262 11.9283L11.4361 7.81834L4.45931 14.3824Z" fill="white"/>
<path d="M14.2509 9.2599C14.159 9.06099 13.9243 8.97419 13.7268 9.06602C13.5293 9.15784 13.4437 9.39353 13.5357 9.59243C13.6276 9.79133 13.8623 9.87814 14.0598 9.78631C14.2573 9.69448 14.3429 9.4588 14.2509 9.2599Z" fill="#737373"/>
<path d="M6.89222 16.4118L8.22203 17.8403C8.27415 17.8963 8.36141 17.8994 8.41693 17.8471L11.2835 15.1502C11.339 15.0979 11.3417 15.0102 11.2896 14.9542L9.95981 13.5256C9.90769 13.4697 9.82043 13.4666 9.76491 13.5188L6.89837 16.2158C6.84285 16.268 6.8401 16.3558 6.89222 16.4118Z" fill="#DF1B3C"/>
<path fill-rule="evenodd" clip-rule="evenodd" d="M9.77822 15.7462L8.75203 16.0002L9.07197 14.9879L9.77822 15.7462Z" fill="white"/>
<path d="M5.09632 14.4818L6.42613 15.9104C6.47825 15.9664 6.56552 15.9694 6.62104 15.9172L9.48757 13.2202C9.54309 13.168 9.54584 13.0803 9.49372 13.0243L8.16392 11.5957C8.11179 11.5397 8.02453 11.5367 7.96901 11.5889L5.10247 14.2859C5.04695 14.3381 5.0442 14.4258 5.09632 14.4818Z" fill="#1368CB"/>
<path fill-rule="evenodd" clip-rule="evenodd" d="M6.88919 14.1329L6.90916 13.3399L7.69683 13.3727L7.67733 14.1655L6.88919 14.1329Z" fill="white"/>
<path d="M10.2008 13.2336L11.5306 14.6622C11.5827 14.7182 11.67 14.7212 11.7255 14.669L14.5921 11.972C14.6476 11.9198 14.6503 11.8321 14.5982 11.7761L13.2684 10.3475C13.2163 10.2915 13.129 10.2885 13.0735 10.3407L10.207 13.0377C10.1514 13.0899 10.1487 13.1776 10.2008 13.2336Z" fill="#FFA302"/>
<path d="M12.7346 12.1874C12.56 11.9999 12.2672 11.9902 12.0806 12.1657C11.894 12.3413 11.8843 12.6356 12.0589 12.8232C12.2335 13.0108 12.5263 13.0205 12.7129 12.8449C12.8995 12.6694 12.9092 12.375 12.7346 12.1874Z" fill="white"/>
<path d="M8.37953 11.2781L9.70933 12.7066C9.76146 12.7626 9.84872 12.7657 9.90424 12.7134L12.7708 10.0165C12.8263 9.96425 12.829 9.87651 12.7769 9.82051L11.4471 8.39195C11.395 8.33596 11.3077 8.33291 11.2522 8.38514L8.38568 11.0821C8.33016 11.1343 8.3274 11.2221 8.37953 11.2781Z" fill="#26860C"/>
<path d="M9.92474 10.5275L10.5566 11.2063L11.2324 10.5706L10.6005 9.89176L9.92474 10.5275Z" fill="white"/>
</g>
<path d="M18.1135 8.73863C18.1156 8.74313 18.1175 8.74735 18.1188 8.75224L20.1931 15.1357C20.2033 15.1665 20.2005 15.2002 20.1861 15.2291C20.1717 15.2581 20.1461 15.2799 20.1155 15.29C19.935 15.3486 19.7896 15.4801 19.7059 15.6601C19.621 15.8427 19.6099 16.0528 19.6745 16.252C19.6847 16.2828 19.682 16.3165 19.6675 16.3454C19.6531 16.3743 19.6275 16.3961 19.5969 16.4063L5.31337 21.0587C5.28277 21.0688 5.24922 21.0659 5.22042 21.0513C5.19148 21.0364 5.16987 21.011 5.1597 20.9802C5.02744 20.573 4.61459 20.3403 4.23929 20.4618C4.21091 20.4716 4.17939 20.4702 4.15135 20.458C4.11936 20.4438 4.09503 20.4168 4.0841 20.3837L2.00977 14.0002C1.99961 13.9694 2.00233 13.9357 2.01678 13.9068C2.03123 13.8778 2.05678 13.8561 2.08737 13.8459C3.27438 13.4594 3.90121 12.1025 3.48488 10.8211C3.46394 10.7567 3.49892 10.6878 3.56289 10.6669L14.9044 6.97273C14.9684 6.95188 15.037 6.98728 15.0579 7.05167C15.26 7.67303 15.6749 8.18453 16.2259 8.49095C16.7746 8.79576 17.3922 8.86083 17.9654 8.67428C17.996 8.66415 18.0295 8.66701 18.0583 8.68162C18.0828 8.69417 18.1021 8.71458 18.1135 8.73933L18.1135 8.73863ZM19.9263 15.1023L17.9242 8.94108C17.3199 9.10449 16.6797 9.02195 16.1085 8.70438C15.5375 8.38708 15.1001 7.871 14.8664 7.24213L3.75161 10.8624C4.12339 12.195 3.48226 13.5752 2.27772 14.0376L4.27982 20.1987C4.70891 20.1202 5.14878 20.3622 5.34336 20.7831C5.3444 20.7853 5.34544 20.7876 5.34648 20.7898L19.4119 16.2084C19.3661 15.9861 19.391 15.7583 19.4853 15.5557C19.5798 15.3522 19.734 15.1948 19.9267 15.1024L19.9263 15.1023Z" fill="#541AAE"/>
</g>
<mask id="mask3_1056_41205" style="mask-type:alpha" maskUnits="userSpaceOnUse" x="3" y="16" width="29" height="38">
<path d="M5.00422 22.1144C5.15571 22.0656 5.24202 21.9089 5.20692 21.7558L5.44104 21.6803C5.50193 21.8251 5.66352 21.9019 5.81501 21.8531C5.9665 21.8043 6.05281 21.6475 6.01771 21.4945L6.25154 21.4191C6.31243 21.5639 6.47401 21.6407 6.62551 21.5919C6.777 21.543 6.86331 21.3863 6.82821 21.2332L7.06233 21.1578C7.12322 21.3025 7.2848 21.3794 7.4363 21.3305C7.58779 21.2817 7.6741 21.125 7.639 20.9719L7.87283 20.8966C7.93372 21.0413 8.0956 21.118 8.2468 21.0693C8.39799 21.0206 8.4846 20.8637 8.4495 20.7107L8.68362 20.6352C8.74451 20.78 8.90609 20.8568 9.05759 20.808C9.20908 20.7591 9.29539 20.6024 9.26029 20.4494L9.49412 20.374C9.55501 20.5187 9.71689 20.5955 9.86809 20.5467C10.0193 20.498 10.1059 20.3412 10.0708 20.1881L10.3049 20.1127C10.3658 20.2574 10.5274 20.3342 10.6789 20.2854C10.8304 20.2366 10.9167 20.0799 10.8816 19.9268L11.1154 19.8514C11.1763 19.9962 11.3382 20.0729 11.4894 20.0242C11.6406 19.9754 11.7272 19.8186 11.6921 19.6656L11.9262 19.5901C11.9871 19.7349 12.1487 19.8117 12.3002 19.7628C12.4517 19.714 12.538 19.5573 12.5029 19.4042L12.7174 19.3351C12.7782 19.4799 12.9398 19.5567 13.0913 19.5079C13.2428 19.459 13.3291 19.3023 13.294 19.1492L13.5279 19.0739C13.5887 19.2186 13.7506 19.2954 13.9018 19.2466C14.053 19.1979 14.1396 19.0411 14.1045 18.888L14.3387 18.8126C14.3995 18.9573 14.5611 19.0341 14.7126 18.9853C14.8641 18.9365 14.9504 18.7797 14.9153 18.6267L15.1491 18.5513C15.21 18.6961 15.3719 18.7728 15.5231 18.7241C15.6743 18.6753 15.7609 18.5185 15.7258 18.3655L15.9599 18.29C16.0208 18.4347 16.1824 18.5116 16.3339 18.4627C16.4854 18.4139 16.5717 18.2572 16.5366 18.1041L16.7704 18.0288C16.8313 18.1735 16.9932 18.2502 17.1444 18.2015C17.2956 18.1528 17.3822 17.996 17.3471 17.8429L17.5812 17.7674C17.6421 17.9122 17.8037 17.989 17.9552 17.9402C18.1067 17.8913 18.193 17.7346 18.1579 17.5816L18.3917 17.5062C18.4526 17.651 18.6145 17.7277 18.766 17.6788C18.9175 17.63 19.0038 17.4733 18.9687 17.3202L19.2025 17.2449C19.2634 17.3896 19.425 17.4664 19.5765 17.4176C19.728 17.3688 19.8143 17.2121 19.7792 17.059L20.0133 16.9835C20.0742 17.1283 20.2358 17.2051 20.3873 17.1563C20.5388 17.1075 20.6251 16.9507 20.59 16.7977L20.9056 16.696C21.0714 17.2105 21.6204 17.4938 22.1314 17.3291L31.2408 45.5917C29.7868 46.0603 28.9898 47.6299 29.462 49.0951L29.0876 49.2158C29.0867 49.2122 29.0857 49.2089 29.0845 49.2054C28.993 48.9214 28.6903 48.7651 28.4081 48.8561C28.126 48.947 27.9718 49.2506 28.0633 49.5345C28.0645 49.5381 28.0655 49.5413 28.067 49.5448L27.6925 49.6655C27.6916 49.6618 27.6906 49.6586 27.6894 49.655C27.5979 49.3711 27.2952 49.2148 27.0131 49.3057C26.7309 49.3967 26.5767 49.7002 26.6683 49.9842C26.6694 49.9877 26.6705 49.991 26.6716 49.9945L26.2625 50.1264C26.2617 50.1227 26.2606 50.1195 26.2595 50.1159C26.168 49.832 25.8653 49.6757 25.5834 49.7665C25.3015 49.8574 25.1468 50.1611 25.2383 50.4451C25.2395 50.4486 25.2405 50.4519 25.2419 50.4553L24.8329 50.5871C24.832 50.5835 24.831 50.5803 24.8298 50.5767C24.7383 50.2928 24.4356 50.1364 24.1538 50.2273C23.8719 50.3182 23.7174 50.6218 23.809 50.9058C23.8101 50.9093 23.8111 50.9126 23.8123 50.9161L23.4032 51.0479C23.4024 51.0443 23.4013 51.0411 23.4002 51.0375C23.3087 50.7536 23.006 50.5972 22.7238 50.6882C22.4416 50.7791 22.2875 51.0827 22.379 51.3667C22.3802 51.3702 22.3812 51.3734 22.3826 51.3769L21.9736 51.5087C21.9727 51.5051 21.9717 51.5019 21.9705 51.4983C21.879 51.2144 21.5763 51.058 21.2944 51.1489C21.0126 51.2397 20.8578 51.5435 20.9494 51.8275C20.9505 51.831 20.9515 51.8342 20.953 51.8377L20.5439 51.9695C20.5431 51.9659 20.542 51.9626 20.5409 51.9591C20.4494 51.6751 20.1467 51.5188 19.8648 51.6097C19.5829 51.7005 19.4285 52.0042 19.52 52.2881C19.5211 52.2917 19.5222 52.2949 19.5236 52.2984L19.1146 52.4302C19.1134 52.4267 19.1124 52.4234 19.1112 52.4199C19.0197 52.1359 18.717 51.9796 18.4348 52.0706C18.1527 52.1615 17.9985 52.4651 18.0901 52.749C18.0912 52.7526 18.0922 52.7558 18.0937 52.7593L17.6846 52.8911C17.6838 52.8875 17.6827 52.8842 17.6816 52.8807C17.5901 52.5967 17.2874 52.4404 17.0055 52.5313C16.7236 52.6221 16.5689 52.9259 16.6604 53.2098C16.6615 53.2134 16.6626 53.2166 16.664 53.2201L16.2895 53.3408C15.8173 51.8756 14.2563 51.0659 12.7997 51.5354L3.69041 23.2728C4.20203 23.1079 4.48198 22.5575 4.31613 22.0429L4.62937 21.942C4.69026 22.0867 4.85184 22.1635 5.00334 22.1147L5.00422 22.1144Z" fill="#6D2EE5"/>
</mask>
<g mask="url(#mask3_1056_41205)">
<path d="M5.00422 22.1144C5.15571 22.0656 5.24202 21.9089 5.20692 21.7558L5.44104 21.6803C5.50193 21.8251 5.66352 21.9019 5.81501 21.8531C5.9665 21.8043 6.05281 21.6475 6.01771 21.4945L6.25154 21.4191C6.31243 21.5639 6.47401 21.6407 6.62551 21.5919C6.777 21.543 6.86331 21.3863 6.82821 21.2332L7.06233 21.1578C7.12322 21.3025 7.2848 21.3794 7.4363 21.3305C7.58779 21.2817 7.6741 21.125 7.639 20.9719L7.87283 20.8966C7.93372 21.0413 8.0956 21.118 8.2468 21.0693C8.39799 21.0206 8.4846 20.8637 8.4495 20.7107L8.68362 20.6352C8.74451 20.78 8.90609 20.8568 9.05759 20.808C9.20908 20.7591 9.29539 20.6024 9.26029 20.4494L9.49412 20.374C9.55501 20.5187 9.71689 20.5955 9.86809 20.5467C10.0193 20.498 10.1059 20.3412 10.0708 20.1881L10.3049 20.1127C10.3658 20.2574 10.5274 20.3342 10.6789 20.2854C10.8304 20.2366 10.9167 20.0799 10.8816 19.9268L11.1154 19.8514C11.1763 19.9962 11.3382 20.0729 11.4894 20.0242C11.6406 19.9754 11.7272 19.8186 11.6921 19.6656L11.9262 19.5901C11.9871 19.7349 12.1487 19.8117 12.3002 19.7628C12.4517 19.714 12.538 19.5573 12.5029 19.4042L12.7174 19.3351C12.7782 19.4799 12.9398 19.5567 13.0913 19.5079C13.2428 19.459 13.3291 19.3023 13.294 19.1492L13.5279 19.0739C13.5887 19.2186 13.7506 19.2954 13.9018 19.2466C14.053 19.1979 14.1396 19.0411 14.1045 18.888L14.3387 18.8126C14.3995 18.9573 14.5611 19.0341 14.7126 18.9853C14.8641 18.9365 14.9504 18.7797 14.9153 18.6267L15.1491 18.5513C15.21 18.6961 15.3719 18.7728 15.5231 18.7241C15.6743 18.6753 15.7609 18.5185 15.7258 18.3655L15.9599 18.29C16.0208 18.4347 16.1824 18.5116 16.3339 18.4627C16.4854 18.4139 16.5717 18.2572 16.5366 18.1041L16.7704 18.0288C16.8313 18.1735 16.9932 18.2502 17.1444 18.2015C17.2956 18.1528 17.3822 17.996 17.3471 17.8429L17.5812 17.7674C17.6421 17.9122 17.8037 17.989 17.9552 17.9402C18.1067 17.8913 18.193 17.7346 18.1579 17.5816L18.3917 17.5062C18.4526 17.651 18.6145 17.7277 18.766 17.6788C18.9175 17.63 19.0038 17.4733 18.9687 17.3202L19.2025 17.2449C19.2634 17.3896 19.425 17.4664 19.5765 17.4176C19.728 17.3688 19.8143 17.2121 19.7792 17.059L20.0133 16.9835C20.0742 17.1283 20.2358 17.2051 20.3873 17.1563C20.5388 17.1075 20.6251 16.9507 20.59 16.7977L20.9056 16.696C21.0714 17.2105 21.6204 17.4938 22.1314 17.3291L31.2408 45.5917C29.7868 46.0603 28.9898 47.6299 29.462 49.0951L29.0876 49.2158C29.0867 49.2122 29.0857 49.2089 29.0845 49.2054C28.993 48.9214 28.6903 48.7651 28.4081 48.8561C28.126 48.947 27.9718 49.2506 28.0633 49.5345C28.0645 49.5381 28.0655 49.5413 28.067 49.5448L27.6925 49.6655C27.6916 49.6618 27.6906 49.6586 27.6894 49.655C27.5979 49.3711 27.2952 49.2148 27.0131 49.3057C26.7309 49.3967 26.5767 49.7002 26.6683 49.9842C26.6694 49.9877 26.6705 49.991 26.6716 49.9945L26.2625 50.1264C26.2617 50.1227 26.2606 50.1195 26.2595 50.1159C26.168 49.832 25.8653 49.6757 25.5834 49.7665C25.3015 49.8574 25.1468 50.1611 25.2383 50.4451C25.2395 50.4486 25.2405 50.4519 25.2419 50.4553L24.8329 50.5871C24.832 50.5835 24.831 50.5803 24.8298 50.5767C24.7383 50.2928 24.4356 50.1364 24.1538 50.2273C23.8719 50.3182 23.7174 50.6218 23.809 50.9058C23.8101 50.9093 23.8111 50.9126 23.8123 50.9161L23.4032 51.0479C23.4024 51.0443 23.4013 51.0411 23.4002 51.0375C23.3087 50.7536 23.006 50.5972 22.7238 50.6882C22.4416 50.7791 22.2875 51.0827 22.379 51.3667C22.3802 51.3702 22.3812 51.3734 22.3826 51.3769L21.9736 51.5087C21.9727 51.5051 21.9717 51.5019 21.9705 51.4983C21.879 51.2144 21.5763 51.058 21.2944 51.1489C21.0126 51.2397 20.8578 51.5435 20.9494 51.8275C20.9505 51.831 20.9515 51.8342 20.953 51.8377L20.5439 51.9695C20.5431 51.9659 20.542 51.9626 20.5409 51.9591C20.4494 51.6751 20.1467 51.5188 19.8648 51.6097C19.5829 51.7005 19.4285 52.0042 19.52 52.2881C19.5211 52.2917 19.5222 52.2949 19.5236 52.2984L19.1146 52.4302C19.1134 52.4267 19.1124 52.4234 19.1112 52.4199C19.0197 52.1359 18.717 51.9796 18.4348 52.0706C18.1527 52.1615 17.9985 52.4651 18.0901 52.749C18.0912 52.7526 18.0922 52.7558 18.0937 52.7593L17.6846 52.8911C17.6838 52.8875 17.6827 52.8842 17.6816 52.8807C17.5901 52.5967 17.2874 52.4404 17.0055 52.5313C16.7236 52.6221 16.5689 52.9259 16.6604 53.2098C16.6615 53.2134 16.6626 53.2166 16.664 53.2201L16.2895 53.3408C15.8173 51.8756 14.2563 51.0659 12.7997 51.5354L3.69041 23.2728C4.20203 23.1079 4.48198 22.5575 4.31613 22.0429L4.62937 21.942C4.69026 22.0867 4.85184 22.1635 5.00334 22.1147L5.00422 22.1144Z" fill="url(#paint1_linear_1056_41205)"/>
<path d="M20.9051 16.6952C21.0711 17.2103 21.6202 17.4939 22.1321 17.3289L27.4387 33.793C26.5038 34.2874 26.4292 36.254 25.4645 36.9288C24.3516 37.708 24.0121 37.047 22.4016 37.4606C21.2799 37.7489 20.3055 38.9929 19.8176 39.7201C19.8133 39.7267 19.8089 39.7334 19.8048 39.7396L19.8024 39.7442C19.8344 39.8716 19.7464 40.0982 19.4954 40.4737C18.4981 41.9607 16.8713 41.9073 15.5416 41.775C14.2117 41.6429 14.9371 42.3904 14.1315 44.6467C13.5393 46.3078 11.679 45.6172 10.7382 45.1369L3.69101 23.2723L3.69218 23.272C4.20292 23.1073 4.48227 22.558 4.31779 22.0437L20.9053 16.6948L20.9051 16.6952Z" fill="url(#paint2_radial_1056_41205)"/>
<path d="M20.9051 16.6952C21.0711 17.2103 21.6202 17.4939 22.1321 17.3289L27.4387 33.793C26.5038 34.2874 26.4292 36.254 25.4645 36.9288C24.3516 37.708 24.0121 37.047 22.4016 37.4606C21.2799 37.7489 20.3055 38.9929 19.8176 39.7201C19.8133 39.7267 19.8089 39.7334 19.8048 39.7396L19.8024 39.7442C19.8344 39.8716 19.7464 40.0982 19.4954 40.4737C18.4981 41.9607 16.8713 41.9073 15.5416 41.775C14.2117 41.6429 14.9371 42.3904 14.1315 44.6467C13.5393 46.3078 11.679 45.6172 10.7382 45.1369L3.69101 23.2723L3.69218 23.272C4.20292 23.1073 4.48227 22.558 4.31779 22.0437L20.9053 16.6948L20.9051 16.6952Z" fill="#8129D7"/>
<g style="mix-blend-mode:multiply" opacity="0.33">
<g style="mix-blend-mode:multiply">
<g style="mix-blend-mode:multiply">
<g style="mix-blend-mode:multiply">
<path d="M2.4269 11.8031C2.43023 12.9344 2.63511 14.0548 2.98025 15.1306C3.65335 17.227 4.78237 19.1051 5.84821 21.015C5.59655 21.0782 5.31853 21.161 5.00901 21.2595C3.00023 21.8975 5.27276 24.2345 5.73448 26.1828C6.19629 28.1315 8.3862 27.4192 10.1402 27.8974C11.8942 28.3756 11.6056 33.1346 12.1022 34.2596C12.5987 35.3846 13.1105 35.7242 15.1508 35.7671C17.1911 35.8099 16.6939 38.0557 17.1907 39.0891C17.6874 40.1226 19.4991 40.0422 19.4991 40.0422C21.1157 39.3314 19.343 35.935 17.94 35.3323C16.5369 34.7295 15.2638 31.8214 15.1007 28.758C14.9376 25.6949 13.175 23.8374 12.4787 23.7393C11.9317 23.662 10.2146 24.0921 9.14357 23.3742C8.90151 23.0808 8.72391 22.7195 8.63571 22.3746C8.36071 21.2986 8.59396 20.1737 8.68834 19.0906C8.87904 16.9013 8.52298 14.5231 6.78381 13.008C6.05333 12.3714 5.05842 11.9079 4.62761 10.9938C4.34622 10.3967 4.34146 8.83849 3.2994 9.06271C2.37504 9.26169 2.4251 11.096 2.42709 11.8027L2.4269 11.8031Z" fill="#36009E"/>
</g>
<g style="mix-blend-mode:multiply">
<path d="M19.499 40.0422C19.499 40.0422 18.1587 38.1459 19.0054 35.2544C19.8521 32.3626 19.3817 29.8334 18.9586 28.9129C18.5354 27.9924 16.2085 23.7727 16.5766 21.4192C16.9447 19.066 14.5471 17.9144 13.4139 17.4955C12.2807 17.0766 9.80254 13.9342 10.18 11.664C10.5571 9.39381 10.6997 6.88187 11.8614 5.28749C13.0228 3.6935 15.8402 2.03873 16.475 3.10195C17.1095 4.16527 16.895 7.98478 16.1321 9.46462C15.3694 10.9448 16.3959 13.9109 17.9981 15.8601C19.6003 17.8093 21.8297 18.9689 20.89 22.0154C19.9505 25.0618 21.8712 30.4258 22.6864 32.0649C23.5017 33.7043 22.8833 36.4142 21.8403 37.678C20.797 38.9423 19.5273 39.6074 19.4991 40.0416L19.499 40.0422Z" fill="#36009E"/>
</g>
</g>
</g>
</g>
<g style="mix-blend-mode:screen" opacity="0.4">
<g style="mix-blend-mode:screen">
<g style="mix-blend-mode:screen">
<g style="mix-blend-mode:screen">
<path d="M-0.645249 13.9022C-0.515505 15.0263 -0.186267 16.117 0.277411 17.1472C1.18074 19.155 2.51265 20.8939 3.7854 22.672C3.54247 22.7633 3.27579 22.8772 2.97925 23.0099C1.05546 23.8715 3.57442 25.9373 4.25166 27.8218C4.9286 29.7063 7.02393 28.7507 8.81967 29.0273C10.6154 29.3039 10.862 34.0672 11.4813 35.1296C12.1005 36.1916 12.647 36.4712 14.6782 36.283C16.7093 36.0947 16.4672 38.3832 17.0765 39.3544C17.6857 40.3253 19.4758 40.0406 19.4758 40.0406C21.0018 39.151 18.8607 35.9755 17.3994 35.5351C15.9384 35.0949 14.3479 32.348 13.8425 29.3217C13.3374 26.2953 11.3785 24.6485 10.6757 24.6296C10.1236 24.6148 8.46645 25.2368 7.32217 24.6441C7.0488 24.38 6.83205 24.0407 6.70566 23.7078C6.3121 22.6694 6.4174 21.5248 6.38974 20.4375C6.33375 18.2395 5.71392 15.9161 3.81654 14.6065C3.0195 14.0565 1.97954 13.7082 1.44921 12.8486C1.10284 12.2867 0.923723 10.7385 -0.0862524 11.0793C-0.982131 11.3817 -0.726861 13.1994 -0.645637 13.902L-0.645249 13.9022Z" fill="#36009E"/>
</g>
<g style="mix-blend-mode:screen">
<path d="M19.4761 40.0405C19.4761 40.0405 17.9326 38.3073 18.4492 35.337C18.9661 32.3665 18.2153 29.9056 17.692 29.0386C17.1686 28.1715 14.3845 24.2401 14.4865 21.8591C14.5885 19.4781 12.0782 18.605 10.9056 18.317C9.73304 18.0289 6.91983 15.1856 7.0401 12.8862C7.16038 10.5869 7.02052 8.07356 7.99572 6.35733C8.97062 4.64119 11.5837 2.67763 12.333 3.6626C13.0824 4.64787 13.2972 8.46865 12.7056 10.0261C12.1139 11.5836 13.4658 14.4161 15.2755 16.1722C17.0852 17.9283 19.4295 18.8288 18.8377 21.9634C18.246 25.0982 20.7547 30.2124 21.7481 31.7498C22.7417 33.2872 22.4311 36.0508 21.5367 37.4256C20.6423 38.8004 19.4555 39.6051 19.4763 40.0401L19.4761 40.0405Z" fill="#36009E"/>
</g>
</g>
</g>
</g>
<path d="M21.3769 18.9029L29.7577 44.905C29.7784 44.9693 29.7433 45.0382 29.6795 45.0588C28.4913 45.4418 27.8608 46.7966 28.2741 48.0786C28.2948 48.1429 28.2597 48.2118 28.1959 48.2324L16.8424 51.8918C16.7785 51.9123 16.7099 51.8769 16.6891 51.8126C16.2759 50.5305 14.973 49.7988 13.7848 50.1818C13.7209 50.2024 13.6522 50.1669 13.6315 50.1026L5.25074 24.1005C5.23002 24.0362 5.26506 23.9673 5.32894 23.9467C5.70548 23.8254 5.90438 23.3947 5.77275 22.9864C5.75203 22.9221 5.78707 22.8532 5.85095 22.8326L20.1495 18.224C20.2134 18.2034 20.2821 18.2389 20.3028 18.3032C20.4345 18.7116 20.8474 18.945 21.2236 18.8237C21.2875 18.8031 21.3562 18.8386 21.3769 18.9029ZM29.4896 44.8661L21.1805 19.0863C20.749 19.1635 20.3074 18.9175 20.1153 18.4922L6.03533 23.0303C6.12788 23.4881 5.91308 23.9456 5.5173 24.1347L13.8264 49.9145C15.073 49.5824 16.4013 50.3244 16.8807 51.6223L28.0074 48.036C27.6387 46.7025 28.2836 45.3245 29.4896 44.8661Z" fill="#541AAE"/>
<path d="M20.8285 45.8692C20.9203 46.1543 20.9795 46.4427 21.0058 46.7345C21.0279 47.024 21.0137 47.2727 20.9632 47.4807L20.0102 47.3755C20.051 47.1815 20.0677 46.9735 20.0603 46.7516C20.0496 46.5308 20.0142 46.3269 19.954 46.1402C19.9023 45.9796 19.8508 45.8696 19.7996 45.8101C19.7451 45.7517 19.6872 45.7324 19.6259 45.7521C19.5549 45.775 19.5165 45.8381 19.5105 45.9412C19.5036 46.0412 19.5124 46.2011 19.537 46.4211C19.5677 46.7042 19.5809 46.9441 19.5766 47.1408C19.5691 47.3386 19.5155 47.5259 19.4157 47.7027C19.3128 47.8806 19.1387 48.0091 18.8934 48.0881C18.6805 48.1568 18.4673 48.1586 18.254 48.0935C18.0407 48.0284 17.8454 47.8924 17.6683 47.6854C17.4901 47.4751 17.3455 47.1979 17.2346 46.8539C17.1586 46.6179 17.1099 46.3786 17.0887 46.1358C17.0632 45.8908 17.0708 45.6659 17.1116 45.461L18.0518 45.5432C17.9928 45.9348 18.0119 46.2814 18.1091 46.5829C18.2052 46.8811 18.3242 47.0073 18.4662 46.9615C18.534 46.9397 18.5713 46.8788 18.5783 46.7789C18.5821 46.68 18.5706 46.5228 18.5438 46.3071C18.5077 46.0293 18.4929 45.7899 18.4993 45.5889C18.5026 45.3889 18.554 45.2005 18.6538 45.0236C18.7524 44.8435 18.9244 44.7139 19.1696 44.6349C19.3826 44.5663 19.5958 44.5645 19.8091 44.6296C20.0192 44.6957 20.215 44.8334 20.3964 45.0426C20.5735 45.2496 20.7175 45.5251 20.8285 45.8692Z" fill="white"/>
<path d="M17.3955 44.0539L17.7203 45.0616L16.8345 45.3471L15.811 42.1716L16.6968 41.8861L17.0216 42.8938L19.524 42.0873L19.8979 43.2473L17.3955 44.0539Z" fill="white"/>
<path d="M18.6643 39.1546C18.8343 39.6822 18.8265 40.1387 18.6408 40.5241C18.4552 40.9096 18.109 41.1839 17.6024 41.3472L15.7389 41.9478L15.365 40.7878L17.1946 40.1981C17.4431 40.118 17.6095 40.0155 17.6939 39.8906C17.7773 39.7624 17.7915 39.6132 17.7366 39.4428C17.6817 39.2724 17.5835 39.1611 17.442 39.109C17.2995 39.0537 17.104 39.066 16.8556 39.1461L15.0259 39.7358L14.6584 38.5954L16.5219 37.9948C17.0285 37.8315 17.4697 37.8521 17.8455 38.0565C18.2213 38.261 18.4942 38.627 18.6643 39.1546Z" fill="white"/>
<path d="M14.487 38.0637L13.9404 36.3678C13.8168 35.9844 13.7774 35.6245 13.8221 35.2882C13.8626 34.9495 13.9844 34.6589 14.1876 34.4161C14.3897 34.1701 14.6634 33.9915 15.0087 33.8802C15.354 33.7689 15.6805 33.7541 15.9882 33.8358C16.2949 33.9142 16.5651 34.0785 16.7989 34.3287C17.0285 34.5767 17.205 34.8924 17.3286 35.2758L17.8752 36.9716L14.487 38.0637ZM16.4538 35.612C16.3735 35.3629 16.2403 35.187 16.054 35.0843C15.8634 34.9793 15.6407 34.9679 15.3857 35.0501C15.1308 35.1322 14.9583 35.271 14.8681 35.4665C14.7737 35.6597 14.7666 35.8809 14.8468 36.1299L15.0037 36.6166L16.6107 36.0986L16.4538 35.612Z" fill="white"/>
<path d="M14.7826 30.3274L15.6442 30.0497L16.5663 32.9106L13.178 34.0026L12.2766 31.2057L13.1381 30.928L13.6721 32.5845L14.069 32.4566L13.6 31.0016L14.4229 30.7364L14.8918 32.1914L15.3371 32.0479L14.7826 30.3274Z" fill="white"/>
<path d="M11.0188 27.3035L14.4071 26.2114L14.7144 27.1651L13.5966 28.9687L15.1359 28.4726L15.5003 29.6032L12.112 30.6952L11.8047 29.7416L12.9225 27.938L11.3832 28.4341L11.0188 27.3035Z" fill="white"/>
<path d="M11.4837 25.7119L11.8084 26.7196L10.9227 27.0051L9.89918 23.8297L10.785 23.5442L11.1097 24.5518L13.6122 23.7453L13.9861 24.9053L11.4837 25.7119Z" fill="white"/>
<path d="M19.1098 33.993C19.007 33.674 18.969 33.3793 18.9959 33.1092C19.0228 32.8391 19.1124 32.6086 19.2647 32.4179C19.417 32.2272 19.6222 32.0903 19.8803 32.0071C20.1385 31.9239 20.385 31.9152 20.62 31.9811C20.855 32.047 21.0622 32.1817 21.2418 32.3853C21.4214 32.5889 21.5627 32.8502 21.6655 33.1693L21.8261 33.6677L22.6587 33.3994L23.034 34.5639L19.6458 35.656L19.1098 33.993ZM20.8084 33.5273C20.7575 33.3694 20.6855 33.2619 20.5923 33.2048C20.4958 33.1487 20.3847 33.1409 20.2588 33.1815C20.133 33.2221 20.0489 33.2927 20.0066 33.3935C19.9611 33.4954 19.9637 33.6252 20.0146 33.7831L20.1514 34.2075L20.9452 33.9516L20.8084 33.5273Z" fill="white"/>
<path d="M20.5744 28.955L20.9974 30.2676L21.6627 30.3092L22.0444 31.4935L18.1695 31.0756L17.8005 29.9308L20.7021 27.3287L21.0901 28.5328L20.5744 28.955ZM19.8549 29.541L19.1111 30.1511L20.0712 30.2121L19.8549 29.541Z" fill="white"/>
<path d="M20.3045 25.83C20.3967 26.1162 20.4562 26.4057 20.4829 26.6985C20.5053 26.9891 20.4914 27.2387 20.4411 27.4474L19.4877 27.3407C19.5282 27.146 19.5447 26.9374 19.537 26.7147C19.5261 26.4931 19.4905 26.2885 19.4301 26.101C19.3781 25.9398 19.3265 25.8293 19.2752 25.7696C19.2206 25.7109 19.1627 25.6914 19.1014 25.7112C19.0304 25.7341 18.992 25.7973 18.9862 25.9009C18.9793 26.0011 18.9883 26.1616 19.0132 26.3824C19.0442 26.6665 19.0577 26.9073 19.0536 27.1047C19.0463 27.3032 18.9929 27.4911 18.8933 27.6684C18.7905 27.8468 18.6165 27.9755 18.3713 28.0546C18.1583 28.1232 17.9451 28.1248 17.7316 28.0592C17.5181 27.9936 17.3227 27.8569 17.1452 27.649C16.9667 27.4378 16.8218 27.1595 16.7105 26.8141C16.6341 26.5772 16.5852 26.337 16.5637 26.0934C16.5379 25.8475 16.5453 25.6218 16.5859 25.4162L17.5265 25.4998C17.4679 25.8927 17.4874 26.2405 17.5849 26.5431C17.6814 26.8425 17.8006 26.9693 17.9426 26.9235C18.0104 26.9017 18.0477 26.8407 18.0546 26.7404C18.0582 26.6412 18.0465 26.4833 18.0195 26.2669C17.9831 25.9881 17.968 25.7479 17.9742 25.5461C17.9772 25.3454 18.0285 25.1564 18.1281 24.9791C18.2266 24.7984 18.3984 24.6686 18.6437 24.5895C18.8567 24.5209 19.0699 24.5194 19.2834 24.5849C19.4936 24.6515 19.6896 24.7899 19.8713 25C20.0488 25.2079 20.1932 25.4846 20.3045 25.83Z" fill="white"/>
<path d="M19.2592 22.5869C19.3515 22.8731 19.4109 23.1626 19.4376 23.4554C19.46 23.746 19.4461 23.9956 19.3958 24.2043L18.4424 24.0976C18.4829 23.9029 18.4994 23.6943 18.4917 23.4716C18.4809 23.25 18.4452 23.0454 18.3848 22.8579C18.3328 22.6967 18.2812 22.5862 18.2299 22.5265C18.1753 22.4678 18.1174 22.4484 18.0561 22.4681C17.9851 22.491 17.9467 22.5542 17.9409 22.6578C17.934 22.758 17.943 22.9185 17.9679 23.1393C17.9989 23.4235 18.0124 23.6642 18.0083 23.8616C18.0011 24.0601 17.9476 24.248 17.8481 24.4253C17.7453 24.6037 17.5712 24.7324 17.326 24.8115C17.113 24.8801 16.8998 24.8817 16.6863 24.8161C16.4728 24.7506 16.2774 24.6138 16.0999 24.4059C15.9214 24.1947 15.7765 23.9164 15.6652 23.571C15.5889 23.3342 15.5399 23.0939 15.5184 22.8503C15.4926 22.6044 15.5 22.3787 15.5406 22.1731L16.4812 22.2567C16.4226 22.6496 16.4421 22.9974 16.5396 23.3001C16.6361 23.5994 16.7554 23.7262 16.8973 23.6805C16.9651 23.6586 17.0024 23.5976 17.0093 23.4973C17.0129 23.3981 17.0012 23.2403 16.9742 23.0238C16.9378 22.745 16.9227 22.5048 16.9289 22.303C16.9319 22.1024 16.9832 21.9133 17.0828 21.736C17.1813 21.5553 17.3532 21.4255 17.5984 21.3465C17.8114 21.2778 18.0246 21.2763 18.2381 21.3418C18.4484 21.4084 18.6443 21.5468 18.8261 21.7569C19.0035 21.9649 19.1479 22.2415 19.2592 22.5869Z" fill="white"/>
</g>
</g>
</g>
<defs>
<linearGradient id="paint0_linear_1056_41205" x1="3.62966" y1="25.7644" x2="4.8663" y2="0.716741" gradientUnits="userSpaceOnUse">
<stop stop-color="#7000FF"/>
<stop offset="1" stop-color="#D635C6"/>
</linearGradient>
<linearGradient id="paint1_linear_1056_41205" x1="12.9162" y1="56.0909" x2="35.7547" y2="22.5341" gradientUnits="userSpaceOnUse">
<stop stop-color="#D635C6"/>
<stop offset="1" stop-color="#7000FF"/>
</linearGradient>
<radialGradient id="paint2_radial_1056_41205" cx="0" cy="0" r="1" gradientUnits="userSpaceOnUse" gradientTransform="translate(18.7412 38.9683) rotate(-122.427) scale(15.1378 9.48472)">
<stop offset="0.34" stop-color="#36009E"/>
<stop offset="0.48" stop-color="#3B04A5"/>
<stop offset="0.69" stop-color="#4C12BA"/>
<stop offset="0.95" stop-color="#6729DD"/>
<stop offset="1" stop-color="#6D2EE5"/>
</radialGradient>
<clipPath id="clip0_1056_41205">
<rect width="68" height="24" fill="white"/>
</clipPath>
</defs>
</svg>
